<svg version="1.0" xmlns="http://www.w3.org/2000/svg" width="500" height="500" viewBox="0 0 3264 3264"><path d="M1461.9 873l-2.4.5v56c.1 30.8 0 56.5-.2 57-.2.7-19.7 1-56.9 1-31.1 0-56.9.2-57.2.5-1.1.8-.8 69.4.3 70.2.7.5.7.8 0 .8-.6 0-1 4.5-1 11.5s.4 11.5 1 11.5c.7 0 .7.3 0 .8-.6.4-1 5.5-1 11.7 0 6.2.4 11.3 1 11.7.7.5.7.8 0 .8-.6 0-1 4.5-1 11.5s.4 11.5 1 11.5c.7 0 .7.3 0 .8-.6.4-1 10.9-1 27.7 0 16.8.4 27.3 1 27.7.7.5.7.8 0 .8-.6 0-1 4.5-1 11.5s.4 11.5 1 11.5c.7 0 .7.3 0 .8-.6.4-1 5.5-1 11.7 0 6.2.4 11.3 1 11.7.7.5.7.8 0 .8-.6 0-1 4.5-1 11.5s.4 11.5 1 11.5c.7 0 .7.3 0 .8-.6.4-1 9.6-1 24 0 14.8.4 23.2 1 23.2.7 0 .7.3 0 .8-.6.4-1 5.5-1 11.7 0 6.2.4 11.3 1 11.7.7.5.7.8 0 .8-1.1 0-1.2 33.6-.2 34.7.4.3 26 .6 57.1.5 51.5 0 56.5.2 56.8 1.7.2.9.4 26.7.3 57.3l-.1 55.8h131.7c104.5 0 131.8-.3 132.1-1.3.2-.6.3-26.3.3-56.9-.1-49.6.1-55.8 1.4-56.2.9-.3 26.1-.5 56.1-.5h55.7c1.6-.1 2-2.8 1.2-7.3-.3-2-.2-4.2.2-4.9.4-.8.3-1.9-.3-2.6-.7-.9-.7-1.3 0-1.3 1.1 0 1.1-1.8-.1-3.7-.4-.6-.3-1.4.2-1.7.5-.3.6-2.1.1-4-.4-1.9-.4-4 .1-4.7.4-.7.4-2-.1-2.9-.5-.9-.5-2.2 0-3 .5-.9.5-1.9-.2-2.7-.7-.9-.7-1.3 0-1.3 1.1 0 1.1-1.8 0-3.5-.4-.6-.3-1.7.2-2.4.4-.8.4-2.7 0-4.2-.5-1.6-.5-3.1 0-3.4.4-.3.4-2 0-3.9s-.4-4 .1-4.7c.4-.7.4-2-.1-2.9-.5-.9-.5-2.2 0-3 .5-.9.5-1.9-.2-2.7-.7-.9-.7-1.3 0-1.3 1.1 0 1.1-1.8 0-3.5-.4-.6-.3-1.7.2-2.4.4-.8.4-2.7 0-4.2-.5-1.6-.5-3.1 0-3.4.4-.3.4-2 0-3.9s-.4-4 .1-4.7c.4-.7.4-2-.1-2.9-.5-.9-.5-2.2 0-3 .5-.9.5-1.9-.2-2.7-.7-.9-.7-1.3 0-1.3 1.1 0 1.1-1.8 0-3.5-.4-.6-.3-1.7.2-2.4.4-.8.4-2.7 0-4.2-.5-1.6-.5-3.1 0-3.4.4-.3.4-2 0-3.9s-.4-4 .1-4.7c.4-.7.4-2-.1-2.9-.5-.9-.5-2.2 0-3 .5-.9.5-1.9-.2-2.7-.7-.9-.7-1.3 0-1.3 1.1 0 1-2.5-.1-3.6-.3-.4-.2-1.4.3-2.4s.7-2 .4-2.3c-.8-.8-.9-11.6-.1-12.4.4-.3.2-1.2-.4-2-.8-.8-.8-1.3-.1-1.3 1.1 0 1.1-1.8-.1-3.7-.4-.6-.3-1.5.3-1.8.7-.5.8-1.1.1-1.9-.6-.7-.6-1.8-.1-2.6.4-.7.4-2.4-.1-3.7-.5-1.3-.5-2.3 0-2.3 1 0 .9-1.9-.2-3.7-.4-.6-.3-1.5.3-1.8.8-.5.8-1.1.1-1.9-.6-.7-.8-1.6-.4-1.9 1-1.1.9-6.7-.2-6.7-.5 0-.4-.5.2-1.1.7-.7.8-2 .3-3.4-.4-1.2-.4-2.8 0-3.5.5-.9.4-2-.2-2.7-.7-.9-.7-1.3 0-1.3 1.1 0 1.1-1.8 0-3.5-.4-.6-.3-1.7.2-2.5.4-.7.4-2.4-.1-3.7-.5-1.3-.5-2.3 0-2.3 1 0 .9-1.9-.1-3.5-.4-.6-.3-1.7.2-2.4.4-.8.4-2.7 0-4.2-.5-1.7-.5-3.1.1-3.5.6-.4.6-1 0-1.8-.6-.7-.8-1.6-.4-1.9.9-1 .9-6.7 0-6.7-.5 0-.5-.5-.1-1.2 1-1.7 1.1-5.8.2-6.4-.5-.3-.4-1.3.1-2.2.5-.9.5-2.6 0-3.9-.5-1.3-.5-2.3 0-2.3 1 0 .9-1.9-.2-3.7-.4-.6-.3-1.5.3-1.8.7-.5.8-1.1.1-1.9-.6-.7-.6-1.8-.1-2.6.4-.7.4-2.4-.1-3.7-.5-1.3-.5-2.3 0-2.3 1 0 .9-1.9-.2-3.7-.4-.6-.3-1.4.2-1.7.5-.3.6-2.1.1-4-.4-1.9-.4-4 .1-4.7.4-.7.4-2-.1-2.9-.5-.9-.5-2.2 0-3 .5-.9.5-1.9-.2-2.7-.7-.9-.7-1.3 0-1.3 1.1 0 1.1-1.8 0-3.5-.4-.6-.3-1.7.2-2.4.4-.8.4-2.7 0-4.2-.5-1.6-.5-3.1 0-3.4.4-.3.4-2 0-3.9s-.4-4 .1-4.7c.4-.7.4-2-.1-2.9-.5-.9-.5-2.2 0-3 .5-.9.5-1.9-.2-2.7-.7-.9-.7-1.3 0-1.3 1.1 0 1.1-1.8 0-3.5-.4-.6-.3-1.7.2-2.4.4-.8.4-2.7 0-4.2-.5-1.6-.5-3.1 0-3.4.4-.3.4-2 0-3.9s-.4-4 .1-4.7c.4-.7.4-2-.1-2.9-.5-.9-.5-2.2 0-3 .5-.9.5-1.9-.2-2.7-.7-.9-.7-1.3 0-1.3 1.1 0 1.1-1.8 0-3.5-.4-.6-.3-1.7.2-2.4.4-.8.4-2.5 0-4-.7-2.5-.6-3.8.1-7.1.4-1.2-7.3-1.4-56.6-1.6-31.3-.1-57.3-.2-57.6-.3-.3 0-.5-25.8-.5-57.1.1-37.3-.2-57-.9-57.1-4.2-.4-258.7-.3-260.6.1zm67.1 149c1.1-.3 6.5-.3 12 0s10.9.3 12 0c1.1-.3 6.5-.3 12 0s10.9.3 12 0c1.1-.3 6.5-.3 12 0s10.9.3 12 0c1.1-.3 6.5-.3 12 0s10.9.3 12 0c1.1-.3 6.5-.3 12 0s10.9.3 12 0c1.1-.3 6.5-.3 12 0s10.9.3 12 0c1.1-.3 5.2-.3 9.1-.2l7 .4-.2 5.7c-.1 3.2.1 6.3.5 6.9.4.7.4 1.2-.1 1.2-.8 0-.9 9.7-.2 10.5.2.2.2 4.7-.1 10-.3 5.5-.1 10 .4 10.6.6.6.6.9 0 .9-.8 0-1.1 9.6-.3 10.5.2.2.2 4.7-.1 10-.3 5.5-.1 10 .4 10.6.6.6.6.9 0 .9-.8 0-1.1 9.6-.3 10.5.2.2.2 4.7-.1 10-.3 5.5-.1 10 .4 10.6.6.6.6.9 0 .9-.9 0-1.1 9.6-.2 10.5.2.3.2 2.7-.2 5.5-.4 2.9-.2 5.4.4 6 .6.6.6 1 0 1-.7 0-1 9.5-.4 12 .1.3.1 3.9 0 8s-.2 9.2-.3 11.2c0 2.1.2 4 .4 4.3.3.3.3 2.7-.1 5.5-.4 2.9-.2 5.4.4 6 .6.6.6 1 .1 1-1 0-1.2 10.7-.2 11.7.3.3.2 1.6-.3 2.9-.6 1.6-.6 2.4.1 2.4.6 0 .7.5.4 1.1-1 1.5-1.1 14.9-.2 14.9.5 0 .5.5.1 1.1-.3.6-.6 3.5-.6 6.4 0 2.9.3 5.8.6 6.4.4.6.4 1.1-.1 1.1-.6 0-.9 9.8-.3 12 .1.3.1 3.9 0 8s-.2 9.2-.3 11.2c0 2.1.2 4 .4 4.3.3.3.3 2.7-.1 5.5-.4 2.9-.2 5.4.4 6 .6.6.6 1 .1 1-1 0-1.2 10.7-.2 11.7.3.3.2 1.6-.3 2.9-.6 1.6-.6 2.4.1 2.4.6 0 .7.5.3 1.1-.4.7-.7 4.2-.6 8l.1 6.8-96.8-.1c-53.2 0-97.2-.3-97.7-.6-1.2-.9-1.1-8.5.1-9.4.6-.5.5-.8-.3-.8-1 0-1-.5-.2-2 .7-1.4.7-2 0-2-1.2 0-.9-2.2.5-3.2.7-.5.7-.8 0-.8-1.2 0-1.6-6-.3-6 .5 0 .5-.7-.1-1.7-.5-1-.5-2.6 0-4 .5-1.3.5-2.3.1-2.3s-.7-1.8-.7-4c-.1-2.2.3-4 .8-4 .4 0 .4-.8-.2-1.7-.5-1-.5-2.6 0-4s.5-2.3-.1-2.3-.6-.9 0-2.4c.5-1.3.6-2.6.3-2.9-.8-.9-.9-10.7-.1-10.7.4 0 .5-.6.2-1.3-.9-2.4-1-9.8-.2-10.3.5-.3.5-1 .2-1.6-.8-1.3-.8-12.3 0-13.7.4-.6.4-1.1-.1-1.1-.9 0-.9-14.7 0-15.7.4-.3.4-1 .1-1.5-.9-1.5-1-10.8-.1-10.8.4 0 .4-.8-.2-1.7-.5-1-.5-2.6 0-4 .5-1.3.5-2.3.1-2.3s-.7-1.8-.7-4c-.1-2.2.3-4 .8-4 .4 0 .4-.8-.2-1.7-.5-1-.5-2.6 0-4 .5-1.3.5-2.3.1-2.3-1.1 0-.8-8.4.3-9.2.6-.5.5-.8-.3-.8-1 0-1-.5-.2-2 .7-1.4.7-2 0-2-1.2 0-.9-2.2.5-3.2.6-.5.5-.8-.4-.8-1 0-1.1-.3-.2-1.3.6-.8.8-1.7.5-2-.9-.9-1.1-10.7-.2-10.7.4 0 .5-.6.2-1.3-.9-2.4-1-9.8-.2-10.3.5-.3.5-1 .2-1.6-1-1.6-1.1-6.8-.1-6.8.5 0 .5-.5.2-1.1-1.1-1.6-1.2-6.9-.2-6.9.4 0 .5-.5.2-1-1-1.6-1.2-11-.3-11 .5 0 .5-.8-.1-1.7-.5-1-.5-2.6 0-4 .5-1.3.5-2.3.1-2.3s-.7-1.8-.7-4c-.1-2.2.3-4 .8-4 .4 0 .4-.8-.2-1.7-.5-1-.5-2.6 0-4s.5-2.3-.1-2.3-.6-.9 0-2.4c.5-1.3.6-2.6.3-2.9-.8-.9-.9-10.7-.1-10.7.4 0 .5-.6.2-1.3-.9-2.4-1-9.8-.2-10.3.5-.3.5-1 .2-1.6-.8-1.3-.8-12.3 0-13.7.4-.6.4-1.1-.1-1.1-.9 0-.9-14.2.1-15.8.3-.6.3-1.3-.2-1.6-.4-.2-.6-2.1-.4-4l.4-3.6 5.9.1c3.3.1 6.1 0 6.3-.2.3-.2 5-.2 10.5.1 5.5.3 11 .3 12.1 0zm861.7-149c-.9.4-1.2 67.1-1.2 304l.1 303.5 74.5.3 74.6.2v-343.5l40.1-.3 40.2-.2v57c0 44.9.3 57 1.3 57.1.6.1 26.4.2 57.2.3l56 .1.1 114.5.1 114.5 74.6.3 74.5.2.1-303.9V873.2l-2.7-.3c-5-.7-145.2-.3-145.9.4-.3.4-.6 52-.6 114.7 0 83.9-.2 114-1.1 114.1-4.7.6-5.6.5-5.6-.3 0-.5-.5-.6-1.2-.2-1.7 1.1-58.8 1.1-58.8 0 0-.5-.6-.4-1.2.1-1.3 1-9.9 1-11.5 0-.4-.3-.8-25.8-.8-56.7 0-49.1-.2-56.3-1.5-56.9-.8-.4-26.6-.7-57.2-.7l-55.8.1-.1-3c0-1.6-.1-27.4-.1-57.3-.1-38.7-.4-54.2-1.2-54.3-5.1-.4-146-.3-146.9.1zm-2090.4 1.3c-.9 1.4-1 6.6-.1 6.1.4-.3.4.6-.1 1.9-.6 1.6-.6 2.8.2 3.6.8.8.8 1.1 0 1.1-1.3 0-1.2 3.2.2 4.2.7.5.7 1 0 1.5-1.1.9-1.3 7.8-.3 8.8.4.4.3 1.8-.3 3.2-.6 1.7-.6 2.2.3 1.7.7-.4.8-.3.4.4-1.2 1.9-1.3 8.1-.2 8.6.7.3.8.7.1 1.3-1.2 1-1.3 3.3-.2 5 .5.7.4 1.3-.1 1.3-1.3 0-1 3.3.3 4.2.6.5.5.8-.4.8-1.1 0-1.1.3-.1 1.5.7.8.8 1.5.3 1.5s-.9.9-.9 2 .4 2 .8 2 .8.5.8 1.1c0 .5-.4.8-.8.5-1-.6-.8 3.6.2 5.2.4.7.3 1.2-.2 1.2-1.3 0-1 3.3.3 4.2.7.5.7 1 0 1.5-1.2.9-1.3 3.3-.2 5 .5.7.4 1.3 0 1.3-.5 0-.9.9-.9 2s.4 2 .8 2 .8.5.8 1.1c0 .5-.4.8-.8.5-1-.6-.8 3.6.2 5.2.4.7.3 1.2-.2 1.2-1.3 0-1 3.3.3 4.2.6.5.6 1.1-.2 1.6-.7.5-.9 1.3-.3 2.1.4.8.4 2.4 0 3.6-.5 1.4-.4 2.7.3 3.4.8.8.8 1.1 0 1.1-1.3 0-1.2 3.2.2 4.2.7.5.7 1 0 1.5-1.2 1-1.4 8.3-.2 8.3.4 0 .6.4.2.9-1 1.7-1.3 7.1-.3 7.1.5 0 .7.4.3.9-.9 1.6-1.3 7.1-.4 7.7.4.2.4 1.6-.1 3-.7 1.8-.7 2.3.2 1.8.7-.4.8-.3.4.4-1.2 1.9-1.3 8.1-.2 8.6.7.3.8.7.1 1.3-1.2 1-1.3 3.3-.2 5 .5.7.4 1.3 0 1.3-.5 0-.9.9-.9 2s.4 2 .8 2 .3 1.2-.3 2.7c-.7 1.9-.7 2.9 0 3.1.6.2.9.7.6 1.2-1 1.6-1.2 7-.3 7 .5 0 .5.8.1 1.7-1 2.2-1 5.4 0 7.1.5.6.4 1.2-.1 1.2-1.3 0-1 3.3.3 4.2.6.5.6 1.1-.2 1.6-.7.5-.9 1.3-.3 2.1.4.8.4 2.4 0 3.6-.5 1.4-.4 2.7.3 3.4.8.8.8 1.1 0 1.1-1.3 0-1.2 3.2.2 4.2.7.5.7 1 0 1.5-1.1.9-1.3 7.8-.3 8.8.4.4.3 1.8-.3 3.2-.6 1.7-.6 2.2.3 1.7.7-.4.8-.3.4.4-1.2 1.9-1.3 8.1-.2 8.6.7.3.8.7.1 1.3-1.2 1-1.3 3.3-.2 5 .5.7.4 1.3-.1 1.3-1.3 0-1 3.3.3 4.2.6.5.5.8-.4.8-1.1 0-1.1.3-.1 1.5.7.8.8 1.5.3 1.5s-.9.9-.9 2 .4 2 .8 2 .8.5.8 1.1c0 .5-.4.8-.8.5-1-.6-.8 3.6.2 5.2.4.7.3 1.2-.2 1.2-1.3 0-1 3.3.3 4.2.7.5.7 1 0 1.5-1.2.9-1.3 3.3-.2 5 .5.7.4 1.3 0 1.3-.5 0-.9.9-.9 2s.4 2 .8 2 .8.5.8 1.1c0 .5-.4.8-.8.5-1-.6-.8 3.6.2 5.2.4.7.3 1.2-.2 1.2-1.3 0-1 3.3.3 4.2.6.5.6 1.1-.2 1.6-.7.5-.9 1.3-.3 2.1.4.8.4 2.4 0 3.6-.5 1.4-.4 2.7.3 3.4.8.8.8 1.1 0 1.1-1.3 0-1.2 3.2.2 4.2.7.5.7 1 0 1.5-1.2 1-1.4 8.3-.2 8.3.4 0 .6.4.2.9-1 1.7-1.3 7.1-.3 7.1.5 0 .7.4.3.9-.9 1.6-1.3 7.1-.4 7.7.4.2.4 1.6-.1 3-.7 1.8-.7 2.3.2 1.8.7-.4.8-.3.4.4-1.2 1.9-1.3 8.1-.2 8.6.7.3.8.7.1 1.3-1.2 1-1.3 3.3-.2 5 .5.7.4 1.3 0 1.3-.5 0-.9.9-.9 2s.4 2 .8 2 .3 1.2-.3 2.7c-.7 1.9-.7 2.9 0 3.1.6.2.9.7.6 1.2-1 1.6-1.2 7-.3 7 .5 0 .5.8.1 1.7-1 2.2-1 5.4 0 7.1.5.6.4 1.2-.1 1.2-1.3 0-1 3.3.3 4.2.6.5.6 1.1-.2 1.6-.7.5-.9 1.3-.3 2.1.4.8.4 2.4 0 3.6-.5 1.4-.4 2.7.3 3.4.8.8.8 1.1 0 1.1-1.3 0-1.2 3.2.2 4.2.7.5.7 1 0 1.5-1.2 1-1.4 8.3-.2 8.3.4 0 .6.4.2.9-1 1.7-1.3 7.1-.3 7.1.5 0 .7.4.3.9-.9 1.6-1.3 7.1-.4 7.7.4.2.4 1.6-.1 3-.7 1.8-.7 2.3.2 1.8.7-.4.8-.3.4.4-1.2 1.9-1.3 8.1-.2 8.6.7.3.8.7.1 1.3-1.2 1-1.3 3.3-.2 5 .5.7.4 1.3 0 1.3-.5 0-.9.9-.9 2s.4 2 .8 2 .3 1.2-.3 2.7c-.7 1.9-.7 2.9 0 3.1.6.2.9.7.6 1.2-1 1.6-1.2 7-.3 7 .5 0 .7.4.3.9-1 1.7-1.3 7.1-.3 7.1.5 0 .7.4.3.9-1 1.7-1.3 7.1-.3 7.1.5 0 .7.4.3.9-.9 1.6-1.3 7.1-.4 7.7.4.2.4 1.6-.1 3-.7 1.8-.7 2.3.2 1.8.7-.4.8-.3.4.4-1.2 1.9-1.3 8.1-.2 8.6.7.3.8.7.1 1.3-1.2 1-1.3 3.3-.2 5 .5.7.4 1.3 0 1.3-.5 0-.9.9-.9 2s.4 2 .8 2 .3 1.2-.3 2.7c-.7 1.9-.7 2.9 0 3.1.6.2.9.7.6 1.2-1 1.6-1.2 7-.3 7 .5 0 .7.4.3.9-1 1.7-1.3 7.1-.3 7.1.5 0 .7.4.3.9-1 1.7-1.3 7.1-.3 7.1.5 0 .7.4.3.9-.9 1.6-1.3 7.1-.4 7.7.4.2.4 1.6-.1 3-.7 1.8-.7 2.3.2 1.8.7-.4.8-.3.4.4-1.2 1.9-1.3 8.1-.2 8.6.7.3.8.7.1 1.3-1.2 1-1.3 3.3-.2 5 .5.7.4 1.3 0 1.3-.5 0-.9.9-.9 2s.4 2 .8 2 .3 1.2-.3 2.7c-.7 1.9-.7 2.9 0 3.1.6.2.9.7.6 1.2-1 1.6-1.2 7-.3 7 .5 0 .7.4.3.9-.9 1.5-1.3 7.1-.5 7.1.5 0 .6.9.3 2-.5 2-.2 2 188.8 1.8l189.4-.3v-114l56.8-.1c31.2-.1 57-.4 57.4-.7.8-.9.8-146.6 0-147.4-.4-.3-26.2-.6-57.4-.7l-56.8-.1-.1-39c0-21.5.1-39.5.3-40.1.3-.7 17.2-1 56.4-1 30.9.1 56.6-.2 57.1-.5 1.5-1 1.7-149.1.2-148.5-.6.2-1.6.1-2.3-.4-.7-.4-2.8-.4-4.7 0-2 .5-3.4.4-3.4-.1 0-.6-.7-.6-1.7-.1-1 .4-2.9.7-4.3.5-2.3-.4-7.4-.4-16.4-.3-2.1.1-4-.1-4.3-.4-.3-.2-1.5-.1-2.7.4-1.3.4-2.9.5-3.6 0-.7-.4-2.6-.4-4.1 0-1.8.5-2.9.5-2.9-.1s-.6-.6-1.8 0c-1 .5-2.4.6-3.2.1-.7-.4-1.8-.6-2.4-.4-2.2.8-8.6 1-9.7.3-.7-.4-2.5-.3-4 .1-1.8.5-2.9.5-2.9-.1s-.7-.6-1.7-.1c-1 .4-2.9.7-4.3.5-1.4-.2-4.7-.4-7.5-.4-2.7.1-6.8 0-9 0s-4.9 0-6 .1c-1.1.1-2.7.1-3.5.1-.8-.1-2.9-.1-4.5-.1h-3v-57c0-31.3-.2-57.1-.5-57.1-2.5-.6-377.3-.2-377.7.4zm342.8 148.6c1.2.2 1.6 3.8.6 5.6-.7 1.3-.6 1.6.2 1.1s.8 0 .1 1.8c-.5 1.4-.6 2.8-.1 3 .9.6.8 3.7-.3 5.4-.4.6-.3 1.2.3 1.2s.6 1.1.1 3c-.5 1.6-.5 3-.1 3 1 0 .6 4.4-.5 6.1-.4.8-.3.9.4.5.9-.5.9 0 .2 1.8-.5 1.4-.6 2.8-.1 3 .9.6.8 3.7-.3 5.4-.4.6-.3 1.2.3 1.2s.6 1.1.1 3c-.5 1.6-.5 3-.1 3 1 0 .6 4.4-.5 6.1-.4.8-.3.9.4.5.9-.5.9 0 .2 1.8-.5 1.4-.6 2.8-.1 3 .9.6.8 3.7-.3 5.4-.4.6-.3 1.2.3 1.2s.6 1.1.1 3c-.5 1.6-.6 3-.2 3 .4 0 .7 1.3.7 3 .1 1.6-.3 3-.8 3-.4 0-.5.4-.2 1 .4.7-32.2 1-97 1h-97.6l.1-19.5c.1-10.7-.1-19.9-.4-20.4-.4-.5-.2-1.2.3-1.6.7-.3.7-1.5.1-3s-.6-2.7 0-3c.6-.3.6-1.5 0-3s-.6-2.7 0-3c.6-.3.6-1.5 0-2.9-.5-1.3-.6-2.7-.3-3 .3-.3.5-4.8.4-10.1-.1-5.2 0-9.8.2-10.3.4-.5 190.8-.9 193.8-.3zm-170.8 229.4c3.2 0 6-.3 6.4-.6.3-.3 1.5-.2 2.8.3 1.2.5 3.8.5 5.8 0 2-.4 3.8-.5 4.1-.3.8.8 35.1.7 36.4-.1.6-.3 1.3-.3 1.5.1.3.5 3.1.7 6.4.6 8.6-.4 9.6-.4 11.8 0 1.1.2 3.2.1 4.8-.4 1.5-.4 2.7-.5 2.7-.1 0 .9 67.4.7 68.8-.2.6-.3 1.3-.3 1.5.1.4.6 7.9.7 14.2.1 3.8-.3 5.6 1.7 4.4 4.9-.5 1.2-.5 2.3 0 2.3.9 0 .5 5.5-.4 7.1-.4.5-.2.9.3.9 1 0 .7 5.4-.3 7.1-.4.5-.2.9.3.9 1 0 .9 3-.2 4.8-.4.6-.3 1.2.1 1.2.9 0 .8 10.4-.1 11.9-.4.5-.2 1.2.2 1.5 1 .6.8 4.8-.4 6.7-.4.8-.3.9.4.5.9-.5.9 0 .2 1.8-.5 1.4-.6 2.8-.1 3 .9.6.8 3.7-.3 5.4-.4.6-.3 1.2.3 1.2s.6 1.1.1 3c-.5 1.6-.5 3-.1 3 .5 0 .6 1.2.4 2.7-.2 1.6-.5 4.4-.6 6.3l-.2 3.5-97.3.2-97.2.2v-32c.1-17.6-.2-32.3-.5-32.8s-.1-1.2.4-1.6c.7-.3.7-1.5.1-3s-.6-2.7 0-3c.6-.3.6-1.5 0-3-1.3-3.3.4-4.3 7.8-4.2 3.4 0 6.5-.3 6.8-.6.4-.4 1.2-.3 1.8 0 .5.4 3.7.7 6.9.6zM418.1 1977c-.4.3-.7 33.9-.7 74.7v74.3l2.5.1c1.4.1 3 .1 3.5 0s14.7-.1 31.5-.1c30 .2 34.2.2 35.8-.1.4-.1 10-.1 21.2 0l20.3.1-.4 2.5c-.3 1.4-.2 2.5.2 2.5.8 0 .4 5.6-.5 7.1-.4.5-.2.9.3.9.8 0 .6 10.9-.3 11.8-.2.3 0 1.2.5 2.1.5 1 .5 2.3 0 3.1-.4.7-.4 2.4.1 3.7.5 1.3.5 2.3 0 2.3-.8 0-.8 2-.1 4 .3.6.1 4.2-.2 9.2-.2 2.1 0 3.8.3 3.8.7 0 .2 5.7-.6 7.1-.4.5-.2.9.2.9.9 0 .8 11.3-.1 13.7-.3.8-.1 1.1.4.8.7-.4.7.3 0 1.9-.5 1.4-.6 2.8-.1 3 .5.3.6 1.8.4 3.3-.8 5.7-.8 7.8.1 9 .5.8.4 1.3-.3 1.3-.8 0-.9.6-.2 1.8.6 1.1.6 2.4 0 3.5-.6 1-.6 1.7-.1 1.7 1 0 .7 5.4-.3 7.1-.4.5-.2.9.3.9.8 0 .6 10.9-.3 11.8-.2.3 0 1.2.5 2.1.5 1 .5 2.3 0 3.1-.4.7-.4 2.4.1 3.7.5 1.3.5 2.3 0 2.3-.8 0-.8 2-.1 4 .3.6.1 4.2-.2 9.2-.2 2.1 0 3.8.3 3.8.7 0 .2 5.7-.6 7.1-.4.5-.2.9.2.9.9 0 .8 11.3-.1 13.7-.3.8-.1 1.1.4.8.7-.4.7.3 0 1.9-.5 1.4-.6 2.8-.1 3 .5.3.6 1.8.4 3.3-.8 5.7-.8 7.8.1 9 .5.8.4 1.3-.3 1.3-.8 0-.9.6-.2 1.8.6 1.1.6 2.4 0 3.5-.6 1-.6 1.7-.1 1.7 1 0 .7 5.4-.3 7.1-.4.5-.2.9.3.9.8 0 .6 10.9-.3 11.8-.2.3 0 1.2.5 2.1.5 1 .5 2.3 0 3.1-.4.7-.4 2.4.1 3.7.5 1.3.5 2.3 0 2.3-.8 0-.8 2-.1 4 .3.6.1 4.2-.2 9.2-.2 2.1 0 3.8.3 3.8.7 0 .2 5.7-.6 7.1-.4.5-.2.9.2.9.9 0 .8 11.3-.1 13.7-.3.8-.1 1.1.4.8.7-.4.7.3 0 1.9-.5 1.4-.6 2.8-.1 3 .5.3.6 1.8.4 3.3-.8 5.7-.8 7.8.1 9 .5.8.4 1.3-.3 1.3-.8 0-.9.6-.2 1.8.6 1.1.6 2.4 0 3.5-.6 1-.6 1.7-.1 1.7 1 0 .7 5.4-.3 7.1-.4.5-.2.9.3.9.8 0 .6 10.9-.3 11.8-.2.3 0 1.2.5 2.1.5 1 .5 2.3 0 3.1-.4.7-.4 2.4.1 3.7.5 1.3.5 2.3 0 2.3-.8 0-.8 2-.1 4 .3.6.1 4.2-.2 9.2-.2 2.1 0 3.8.3 3.8.7 0 .2 5.7-.6 7.1-.4.5-.2.9.2.9.9 0 .8 11.3-.1 13.7-.3.8-.1 1.1.4.8.7-.4.7.3 0 1.9-.5 1.4-.6 2.8-.1 3 .5.3.6 1.8.4 3.3-.8 5.7-.8 7.8.1 9 .5.8.4 1.3-.3 1.3-.8 0-.9.6-.2 1.8.6 1.1.6 2.4 0 3.5-.6 1-.6 1.7-.1 1.7 1 0 .7 5.4-.3 7.1-.4.5-.2.9.3.9.8 0 .6 10.9-.3 11.8-.2.3 0 1.2.5 2.1.5 1 .5 2.3 0 3.1-.4.7-.4 2.4.1 3.7.5 1.3.5 2.3 0 2.3-.8 0-.8 2-.1 4 .1.3.2 1.8.1 3.5-.3 7-.2 14.8.3 15.2.3.3.1 1.6-.4 2.9-.5 1.3-.6 2.4-.2 2.4.4 0 .8.9.8 2s-.3 2-.7 2c-.8 0-.6 2.7.3 3.6.4.3.4 1.3.1 2.2-.5 1.1-.2 1.4 1 .9.9-.3 1.7-.2 1.7.4 0 .6.4.8.9.5 1.2-.8 13.9-1.2 14.5-.5.3.3 3.1.2 6.1-.1 3.1-.3 5.8-.2 6.1.2.3.5 1 .6 1.5.2 1.2-.7 9.7-1 10.3-.3.3.2 3.4.2 7.1-.1 3.7-.3 7-.1 7.5.4.6.6 1 .6 1 .1 0-1.1 13.2-1.1 14.9 0 .6.3 1.1.2 1.1-.3 0-.7 3.3-.8 5-.2.3.1 1 .1 1.5 0 2.3-.4 9.5-.3 10 .2.3.3 2.3.2 4.5-.2 2.3-.4 4-.3 4 .2s.4.7.9.4c1.2-.8 13.9-1.2 14.5-.5.3.3 3.1.2 6.1-.1 3.1-.3 5.8-.2 6.1.2.3.5 1 .6 1.5.2.9-.5 8.1-.8 10.4-.4 1.7.3 10-.2 10.4-.6.2-.2.4-103.5.4-229.4v-229.1l7.1.1c3.9.1 28.1.1 53.8 0 25.7 0 47 0 47.5.1.4.1 1.3 0 1.8-.1.6-.1 1.9-.3 3-.4 1.2 0 1.9-.7 1.6-1.6-.2-.8-.3-2.6-.2-4 .3-2.8.3-3.4-.2-7-.2-1.4.1-3 .6-3.7.5-.7.5-1.8.1-2.5-1-1.6-1-5 0-6.6.4-.6.3-1.2-.2-1.2-.6 0-.7-1.4-.2-3.5.4-1.9.4-3.5-.1-3.5s-.4-1.1.1-2.5c.6-1.5.6-2.5 0-2.5-.5 0-.5-1.2 0-3 .5-1.7.5-3 .1-3-.9 0-.8-3.1.3-4.8.4-.6.3-1.2-.2-1.2-.6 0-.7-1.4-.2-3.5.4-1.9.4-3.5-.1-3.5s-.4-1.1.1-2.5c.6-1.5.6-2.5 0-2.5-.5 0-.5-1.2 0-3 .5-1.7.5-3 .1-3-.9 0-.8-3.1.3-4.8.4-.6.3-1.2-.2-1.2-.6 0-.7-1.4-.2-3.4.4-1.9.4-4 0-4.6-.4-.7-.4-2.5 0-4s.4-3.3 0-4c-.4-.7-.4-2.5 0-4s.4-3.3 0-4c-.4-.7-.4-2.5 0-4.1.5-1.5.6-3 .3-3.3-1-.9-1-5 0-6.3.5-.7.5-1.8.1-2.5-1-1.6-1-5 0-6.6.4-.6.3-1.2-.2-1.2-.6 0-.7-1.4-.2-3.5.4-1.9.4-3.5-.1-3.5s-.4-1.1.1-2.5c.6-1.5.6-2.5 0-2.5-.5 0-.5-1.2 0-2.9.5-1.9.5-3.1-.1-3.3-.7-.2-.7-1.2-.1-2.9 2.2-5.6 14.8-5.3-188.8-5.3-103.5-.1-188.5.1-188.9.4zm1041.5 1c-.2.8-.3 26.6-.2 57.2.1 36.4-.2 55.9-.9 56.1-.5.2-4.5.3-8.7.1-4.3-.1-8 .2-8.3.7-.4.5-1.2.9-1.8.9-.9 0-.9-.3.1-.8.7-.5-8.6-.8-20.5-.8-13.8 0-22.1.4-22.5 1.1-.5.6-.8.6-.8-.2 0-1.3-1.8-1.2-3.9.1-.9.6-1.2.5-.8-.1.7-1.1-28.2-1.2-29.9-.1-.6.4-1.4.4-1.8 0-.4-.3-3.9-.7-7.7-.8-5.6-.1-6.9.1-6.5 1.2.3.8.2 1.4-.2 1.4s-.7 7.2-.7 16c0 10 .4 16 1 16 .7 0 .7.3 0 .8-.6.4-1 7.5-1 17.7s.4 17.3 1 17.7c.7.5.7.8 0 .8s-1 19.2-1 55.5.3 55.5 1 55.5.7.3 0 .8c-.6.4-1 5.5-1 11.7 0 6.2.4 11.3 1 11.7.7.5.7.8 0 .8-.6 0-1 4.5-1 11.5s.4 11.5 1 11.5c.7 0 .7.3 0 .8-.6.4-1 5.5-1 11.7 0 6.2.4 11.3 1 11.7.7.5.7.8 0 .8s-1 19.2-1 55.5.3 55.5 1 55.5.7.3 0 .8c-.6.4-1 5.5-1 11.7 0 6.2.4 11.3 1 11.7.7.5.7.8 0 .8-.6 0-1 7.2-1 19.5s.4 19.5 1 19.5c.7 0 .7.3 0 .8-.6.4-1 5.5-1 11.7 0 6.2.4 11.3 1 11.7.7.5.7.8 0 .8-.8 0-1.2 30.4-.6 37.3.1.5 2.5.7 5.4.6 2.9-.1 5.9.1 6.5.5.7.4 1.2.4 1.2-.1 0-.9 13.4-.8 14.9.2.6.3 1.1.2 1.1-.3 0-.7 3.3-.8 5-.2.3.1 1 .1 1.5 0 2.3-.4 9.5-.3 10 .2.3.3 2.3.2 4.5-.2 2.3-.4 4-.3 4 .2s.4.7.9.4c1.2-.8 13.9-1.2 14.5-.5.3.3 3.1.2 6.1-.1 3.1-.3 5.8-.2 6.1.2.3.5 1 .6 1.5.2 1.2-.7 9.7-1 10.3-.3.3.2 3.4.2 7.1-.1 3.7-.3 7-.1 7.5.4.6.6 1 .6 1 .1 0-1.1 13.2-1.1 14.9 0 .6.3 1.1.2 1.1-.3 0-.7 3.3-.8 5-.2.3.1 1 .1 1.5 0 2.1-.4 9.1-.4 10 .1.6.3 2.6.2 4.5-.2 1.9-.3 3.2-.7 2.8-.8-.4 0-.3-1.2.2-2.6.5-1.4.6-2.5.2-2.5-.4 0-.7-1.8-.7-4-.1-2.2.3-4 .8-4 .4 0 .4-.8-.2-1.7-.5-1-.5-2.6 0-4 .5-1.3.5-2.3.1-2.3s-.7-1.8-.7-4c-.1-2.2.3-4 .8-4 .4 0 .4-.8-.2-1.7-.5-1-.5-2.6 0-4 .5-1.3.5-2.3.1-2.3s-.7-1.8-.7-4c-.1-2.2.3-4 .8-4 .4 0 .4-.8-.2-1.7-.5-1-.5-2.6 0-4 .5-1.3.5-2.3.1-2.3-1.1 0-.8-8.4.3-9.2.6-.5.5-.8-.3-.8-1 0-1-.5-.2-2 .7-1.4.7-2 0-2-1.2 0-.9-2.2.5-3.2.6-.5.5-.8-.4-.8-1 0-1.1-.3-.2-1.3.6-.8.8-1.7.5-2-.9-.9-1.1-10.7-.2-10.7.4 0 .5-.6.2-1.3-.9-2.4-1-9.8-.2-10.3.5-.3.5-1 .2-1.6-1-1.6-1.1-6.8-.1-6.8.5 0 .5-.5.2-1.1-1.1-1.6-1.2-6.9-.2-6.9.4 0 .5-.5.2-1-1-1.6-1.2-11-.3-11 .5 0 .5-.8-.1-1.7-.5-1-.5-2.6 0-4 .5-1.3.5-2.3.1-2.3s-.7-1.8-.7-4c-.1-2.2.3-4 .8-4 .4 0 .4-.8-.2-1.7-.5-1-.5-2.6 0-4s.5-2.3-.1-2.3-.6-.9 0-2.4c.5-1.3.6-2.6.3-2.9-.8-.9-.9-10.7-.1-10.7.4 0 .5-.6.2-1.3-.9-2.4-1-9.8-.2-10.3.5-.3.5-1 .2-1.6-.8-1.3-.8-12.3 0-13.7.4-.6.4-1.1-.1-1.1-.9 0-.9-14.2 0-15.7.4-.6.4-1.3.1-1.6-.9-.9-1-10.7-.1-10.7.4 0 .4-.8-.1-1.8-.5-.9-.6-2.6-.3-3.8l.6-2.1h97.3c80.7 0 97.2.3 96.8 1.4-.3.7-.2 1.3.2 1.3s.5 4.5.2 10.1c-.3 5.7-.1 10.4.4 11 .6.6.6.9 0 .9-.8 0-1.1 9.6-.3 10.5.2.2.2 4.7-.1 10-.3 5.5-.1 10 .4 10.6.6.6.6.9 0 .9-.9 0-1.1 9.6-.2 10.5.2.3.2 2.7-.2 5.5-.4 2.9-.2 5.4.4 6 .6.6.6 1 0 1-.7 0-1 9.5-.4 12 .1.3.1 3.9 0 8s-.2 9.2-.3 11.2c0 2.1.2 4 .4 4.3.3.3.3 2.7-.1 5.5-.4 2.9-.2 5.4.4 6 .6.6.6 1 0 1-.9 0-1.1 10.7-.1 11.7.3.3.2 1.6-.3 2.9-.6 1.6-.6 2.4.1 2.4.6 0 .7.5.4 1.1-1 1.5-1.1 14.9-.2 14.9.5 0 .5.5.1 1.1-.3.6-.6 3.5-.6 6.4 0 2.9.3 5.8.6 6.4.4.6.4 1.1-.1 1.1-.6 0-.9 9.8-.3 12 .1.3.1 3.9 0 8s-.2 9.2-.3 11.2c0 2.1.1 4 .4 4.2.2.2.2 4.4-.1 9.1-.4 6.3-.2 8.9.7 9.2.7.3 3.9.3 7.3.1 3.3-.1 6 .1 6 .5 0 .5.4.6.9.3 1.1-.7 13.9-1.2 14.5-.6.2.3 4.1.3 8.5 0 4.5-.3 8.1-.1 8.1.3 0 .5.4.6.9.3 1.1-.7 13.9-1.2 14.5-.6.2.3 4.1.3 8.5 0 4.5-.3 8.1-.1 8.1.3 0 .5.4.6.9.3 1.1-.7 13.9-1.2 14.5-.6.2.3 4.1.3 8.5 0 4.5-.3 8.1-.1 8.1.3 0 .5.4.6.9.3 1.1-.7 13.9-1.2 14.5-.6.2.3 4.8.3 10.1 0 5.5-.3 10-.1 10.6.4.6.6.9.5.9-.3 0-.7.4-1 .9-.7.5.3 1.1-.1 1.5-.9.3-.8 0-1.5-.6-1.5-.9 0-.9-.3-.1-1.1.7-.7.8-2 .3-3.4-.4-1.2-.4-2.8 0-3.5.5-.9.4-2-.2-2.7-.7-.9-.7-1.3 0-1.3 1.1 0 1.1-1.8 0-3.5-.4-.6-.3-1.7.2-2.5.4-.7.4-2.4-.1-3.7-.5-1.3-.5-2.3 0-2.3 1 0 .9-1.9-.1-3.5-.4-.6-.3-1.7.2-2.4.4-.8.4-2.7 0-4.2-.5-1.7-.5-3.1.1-3.5.6-.4.6-1 0-1.8-.6-.7-.8-1.6-.4-1.9.9-1 .9-6.7 0-6.7-.5 0-.5-.5-.1-1.2 1-1.7 1.1-5.8.2-6.4-.5-.3-.4-1.3.1-2.2.5-.9.5-2.6 0-3.9-.5-1.3-.5-2.3 0-2.3 1 0 .9-1.9-.2-3.7-.4-.6-.3-1.5.3-1.8.7-.5.8-1.1.1-1.9-.6-.7-.6-1.8-.1-2.6.4-.7.4-2.4-.1-3.7-.5-1.3-.5-2.3 0-2.3 1 0 .9-1.9-.2-3.7-.4-.6-.3-1.4.2-1.7.5-.3.6-2.1.1-4-.4-1.9-.4-4 .1-4.7.4-.7.4-2-.1-2.9-.5-.9-.5-2.2 0-3 .5-.9.5-1.9-.2-2.7-.7-.9-.7-1.3 0-1.3 1.1 0 1.1-1.8 0-3.5-.4-.6-.3-1.7.2-2.4.4-.8.4-2.7 0-4.2-.5-1.6-.5-3.1 0-3.4.4-.3.4-2 0-3.9s-.4-4 .1-4.7c.4-.7.4-2-.1-2.9-.5-.9-.5-2.2 0-3 .5-.9.5-1.9-.2-2.7-.7-.9-.7-1.3 0-1.3 1.1 0 1-2.5-.1-3.6-.3-.4-.2-1.4.3-2.4s.7-2 .4-2.3c-.8-.8-.9-11.6-.1-12.4.4-.3.2-1.2-.4-2-.8-.8-.8-1.3-.1-1.3 1.1 0 1.1-1.8-.1-3.7-.4-.6-.3-1.5.3-1.8.7-.5.8-1.1.1-1.9-.6-.7-.6-1.8-.1-2.6.4-.7.4-2.4-.1-3.7-.5-1.3-.5-2.3 0-2.3 1 0 .9-1.9-.2-3.7-.4-.6-.3-1.5.3-1.8.8-.5.8-1.1.1-1.9-.6-.7-.8-1.6-.4-1.9 1-1.1.9-6.7-.1-6.7-.6 0-.5-.5.1-1.1.7-.7.8-2 .3-3.4-.4-1.2-.4-2.8 0-3.5.5-.9.4-2-.2-2.7-.7-.9-.7-1.3 0-1.3 1.1 0 1.1-1.8 0-3.5-.4-.6-.3-1.7.2-2.5.4-.7.4-2.4-.1-3.7-.5-1.3-.5-2.3 0-2.3 1 0 .9-1.9-.1-3.5-.4-.6-.3-1.7.2-2.4.4-.8.4-2.7 0-4.2-.5-1.7-.5-3.1.1-3.5.6-.4.6-1 0-1.8-.6-.7-.8-1.6-.4-1.9.9-1 .9-6.7 0-6.7-.5 0-.5-.5-.1-1.2 1-1.7 1.1-5.8.2-6.4-.5-.3-.4-1.3.1-2.2.5-.9.5-2.6 0-3.9-.5-1.3-.5-2.3 0-2.3 1 0 .9-1.9-.2-3.7-.4-.6-.3-1.5.3-1.8.7-.5.8-1.1.1-1.9-.6-.7-.6-1.8-.1-2.6.4-.7.4-2.4-.1-3.7-.5-1.3-.5-2.3 0-2.3 1 0 .9-1.9-.2-3.7-.4-.6-.3-1.5.3-1.8.8-.5.8-1.1.1-1.9-.6-.7-.8-1.6-.4-1.9 1-1.1.9-6.7-.2-6.7-.5 0-.4-.5.2-1.1.7-.7.8-2 .3-3.4-.4-1.2-.4-2.8 0-3.5.5-.9.4-2-.2-2.7-.7-.9-.7-1.3 0-1.3 1.1 0 1.1-1.8 0-3.5-.4-.6-.3-1.7.2-2.5.4-.7.4-2.4-.1-3.7-.5-1.3-.5-2.3 0-2.3 1 0 .9-1.9-.1-3.5-.4-.6-.3-1.7.2-2.4.4-.8.4-2.7 0-4.2-.5-1.7-.5-3.1.1-3.5.6-.4.6-1 0-1.8-.6-.7-.8-1.6-.4-1.9.9-1 .9-6.7 0-6.7-.5 0-.5-.5-.1-1.2 1-1.7 1.1-5.8.2-6.4-.5-.3-.5-1-.2-1.6 1-1.6 1.1-6.8.1-6.8-.5 0-.5-.6 0-1.2.8-1.4.7-9.3-.1-10.6-.3-.4-.1-1.4.4-2.2.5-.8.5-2.1 0-3-.5-.9-.5-2.2 0-3 .5-.9.5-1.9-.2-2.7-.7-.9-.7-1.3 0-1.3 1.1 0 1.1-1.8 0-3.5-.4-.6-.3-1.7.2-2.4.4-.8.4-2.7 0-4.2-.5-1.7-.5-3.1.1-3.5.6-.4.6-1 0-1.8-.6-.7-.8-1.6-.4-1.9.9-1 .9-6.7 0-6.7-.5 0-.5-.5-.1-1.2 1-1.7 1.1-5.8.2-6.4-.5-.3-.5-1-.2-1.6 1.1-1.7 1-6.8-.1-6.8-.5 0-.4-.5.2-1.1.7-.7.8-2 .3-3.4-.4-1.2-.4-2.8 0-3.5.5-.9.4-2-.2-2.7-.7-.9-.7-1.3 0-1.3 1.1 0 1.1-1.8 0-3.5-.4-.6-.3-1.7.2-2.5.4-.7.4-2.4-.1-3.7-.5-1.3-.5-2.3 0-2.3 1 0 .9-1.9-.1-3.5-.4-.6-.3-1.7.2-2.4.4-.8.4-2.7 0-4.2-.5-1.7-.5-3.1.1-3.5.6-.4.6-1 0-1.8-.6-.7-.8-1.6-.4-1.9.9-1 .9-6.7 0-6.7-.5 0-.5-.5-.1-1.2 1-1.6 1.1-10.8.1-10.8-.5 0-.5-.5-.1-1.2 1-1.6 1.1-6.8.1-6.8-.4 0-.3-.8.2-1.8.6-1.1.6-2.4.1-3.3-.8-1.2-5.6-1.4-29-1.4-18.5 0-28 .3-28 1s-.3.7-.8 0c-.8-1.3-2.2-1.3-4.1-.1-.9.6-1.2.5-.8-.1.7-1.1-28.2-1.2-29.9-.1-.6.4-1.4.4-1.8.1-1.1-1.1-13.5-1.3-14.2-.2-.4.6-1 .6-1.9-.1-.7-.6-1.9-.9-2.6-.8-1.2.3-1.4-9.2-1.6-56.2 0-31.1-.1-57-.2-57.5-.1-.7-44.7-1-131.6-1-116.1 0-131.6.2-131.9 1.5zm106.5 148c27.6.2 74.8.2 76.6-.1.4-.1 11.1-.1 23.7 0 18.9.1 22.7.3 22.3 1.5-.3.7 0 1.9.6 2.5.6.6.7 1.1.2 1.1-.9 0-1.2 10.6-.3 11.5.2.2.1 3.3-.2 6.9-.3 4.2-.2 6.6.5 6.6s.7.3 0 .8c-.5.4-1 3.8-1 7.7 0 3.8.5 7.3 1 7.7.7.5.7.8 0 .8-.6 0-1 3.1-1 7.2 0 4 .5 7.6 1 8 .7.5.7.8 0 .8-.6 0-1 3.2-1 7.5 0 4.1.4 7.5.8 7.5s.3.6-.4 1.2c-.9 1-21.6 1.3-97.6 1.2-53-.1-96.6-.4-96.9-.7-.9-.9-1-10.7-.2-10.7.4 0 .5-.6.2-1.3-.9-2.4-1-9.8-.2-10.3.5-.3.6-1 .2-1.5-.9-1.6-1-10.9-.1-10.9.4 0 .4-.8-.2-1.7-.5-1-.5-2.6 0-4 .5-1.3.5-2.3.1-2.3s-.7-1.8-.7-4c-.1-2.2.3-4 .8-4 .4 0 .4-.8-.2-1.7-.5-1-.5-2.6 0-4 .5-1.3.5-2.3.1-2.3-1.1 0-.8-8.4.3-9.2.6-.5.5-.8-.3-.8-1 0-1-.5-.2-2 .7-1.4.7-2 0-2-1.2 0-.9-2.2.5-3.2.6-.5.5-.8-.2-.8s-1-.7-.7-1.5c.5-1.2 5.2-1.5 31.3-1.7 16.8-.2 30.9-.2 31.2-.1.3.1 4.8.2 10 .3zm824-148c-.5 1.2-.7 603.1-.2 607.5.1.7.4.7.9 0 .8-1.2 16.2-1.4 16.2-.2 0 .5.4.6.9.3 1.1-.7 13.9-1.2 14.5-.6.2.3 4.1.3 8.5 0 4.5-.3 8.1-.1 8.1.3 0 .5.4.6.9.3 1.1-.7 13.9-1.2 14.5-.6.2.3 4.1.3 8.5 0 4.5-.3 8.1-.1 8.1.3 0 .5.4.6.9.3 1.1-.7 13.9-1.2 14.5-.6.2.3 4.1.3 8.5 0 4.5-.3 8.1-.1 8.1.3 0 .5.4.6.9.3 1.1-.7 13.9-1.2 14.5-.6.2.3 4.1.3 8.5 0 4.5-.3 8.1-.1 8.1.3 0 .5.4.6.9.3 1.2-.8 13.9-1.2 14.5-.5.3.3 3.1.2 6.1-.1 3.1-.3 5.8-.2 6.1.2.3.5 1 .6 1.5.2 1.3-.7 9.7-1 10.4-.2.3.3 2.3.2 4.5-.2 2.3-.4 4-.3 4 .2s.4.7.9.4c1.2-.8 13.9-1.2 14.5-.5.3.3 3.1.2 6.1-.1 3.1-.3 5.8-.2 6.1.2.3.5 1 .6 1.5.2 1.2-.7 9.7-1 10.3-.3.3.2 3.4.2 7.1-.1 3.7-.3 7-.1 7.5.4.6.6 1 .6 1 .1 0-1.1 13.2-1.1 14.9 0 .6.3 1.1.2 1.1-.3 0-.7 3.3-.8 5-.2.3.1 1 .1 1.5 0 2.3-.4 9.5-.3 10 .2.3.3 2.3.2 4.5-.2 2.3-.4 4-.3 4 .2s.4.7.9.4c1.2-.8 13.9-1.2 14.5-.5.3.3 3.1.2 6.1-.1 3.1-.3 5.8-.2 6.1.2.3.5 1 .6 1.5.2 1.2-.7 9.7-1 10.3-.3.3.2 3.4.2 7.1-.1 3.7-.3 7-.1 7.5.4.6.6 1 .6 1 0 0-1 13.2-1 14.9.1.6.3 1.1.2 1.1-.3 0-1 3-.9 4.8.2.6.4 1.2.3 1.2-.3 0-.7.8-.7 2.5-.1 1.4.5 2.5.6 2.5.1 0-.4 1.4-.5 3.1-.3 3.5.5 5.5-1.4 3.7-3.5-.6-.7-.6-1.3-.1-1.3 1.1 0 1-7-.1-8.8-.4-.7-.3-1.2.2-1.2 1 0 .9-3-.2-4.8-.4-.6-.4-1.2.1-1.2 1 0 1-7.1-.1-8.8-.4-.7-.3-1.2.2-1.2 1 0 .8-4.2-.2-5.9-.4-.5-.3-1.2.2-1.5 1-.6.9-5.7-.2-7.4-.4-.7-.3-1.2.2-1.2 1 0 .9-3-.2-4.8-.4-.6-.4-1.2.1-1.2.9 0 .9-5.2 0-6.7-.4-.6-.3-1.3.1-1.7 1.1-1.1.9-5-.3-5.8-.7-.5-.7-.8 0-.8 1.2 0 1.3-9.9.1-11.8-.4-.7-.3-1.2.2-1.2s.7-1.2.5-2.8c-.2-1.5-.4-3.2-.4-3.7 0-.6.2-2.2.4-3.8.2-1.5 0-2.7-.5-2.7s-.6-.6-.2-1.2c1.1-1.8 1.2-4.8.2-4.8-.5 0-.6-.5-.2-1.2 1-1.7 1.1-5.8.2-6.4-.5-.3-.5-1.1-.1-1.7 1.1-1.8 1-5.1-.2-5.9-.7-.5-.7-.8.1-.8 1.2 0 1.3-7.8.1-9.8-.5-.6-.4-1.2.1-1.2 1.1 0 1-4-.1-5.8-.5-.6-.4-1.2.1-1.2s.7-1.2.5-2.8c-.5-3.4-.5-4.2 0-6.7.2-1.1-.1-2.6-.7-3.4-.9-1.2-.8-1.3.4-.6 1.2.6 1.3.5.2-.6-1-1.1-6.6-1.3-27.1-1.4-15.2 0-25.7.4-25.4.9.4.5 0 .5-.8 0-1.9-1.1-47.9-1.2-47.2 0 .4.5 0 .5-.8 0-1.9-1.1-47.9-1.2-47.2 0 .4.5 0 .5-.8 0-2-1.2-48.2-1.2-49.1.1-.5.7-.8.7-.8 0s-5.4-1-15-1l-15 .1-.1-2.5c0-1.4-.1-104.6-.1-229.4-.1-124.7-.4-226.7-.7-226.8-.3 0-33.6-.2-73.9-.2-64.4-.2-73.5 0-74.1 1.3z"/></svg>